<svg width="15" height="15" viewBox="0 0 15 15" fill="none" xmlns="http://www.w3.org/2000/svg">
<path fill-rule="evenodd" clip-rule="evenodd" d="M0.381348 7.76628C0.381348 3.84275 3.56199 0.662109 7.48552 0.662109C11.4091 0.662109 14.5897 3.84275 14.5897 7.76628C14.5897 11.6898 11.4091 14.8705 7.48552 14.8705C3.56199 14.8705 0.381348 11.6898 0.381348 7.76628ZM3.40937 7.76611C3.40937 8.30069 3.84273 8.73406 4.37731 8.73406C4.91189 8.73406 5.34525 8.30069 5.34525 7.76611C5.34525 7.23153 4.91189 6.79817 4.37731 6.79817C3.84273 6.79817 3.40937 7.23153 3.40937 7.76611ZM7.48538 8.73406C6.9508 8.73406 6.51744 8.30069 6.51744 7.76611C6.51744 7.23153 6.9508 6.79817 7.48538 6.79817C8.01996 6.79817 8.45333 7.23153 8.45333 7.76612C8.45496 8.29906 8.02425 8.73242 7.49131 8.73406L7.48538 8.73406ZM9.62847 7.76315C9.62683 8.29773 10.0589 8.73242 10.5934 8.73405L10.5964 8.73406C11.131 8.73406 11.5643 8.30069 11.5643 7.76611C11.5643 7.23269 11.1328 6.79981 10.5994 6.79817C10.0648 6.79654 9.6301 7.22857 9.62847 7.76315Z" fill="#B3C1DB"/>
</svg>
