<svg width="15" height="15" viewBox="0 0 15 15" fill="none" xmlns="http://www.w3.org/2000/svg">
<path d="M7.48551 13.2036C7.19071 13.2036 6.91457 13.0949 6.70754 12.8975L1.57543 8.00811C0.669392 7.14486 0.247848 5.95152 0.418594 4.73379C0.588283 3.52588 1.33264 2.47729 2.46146 1.85693C4.04198 0.988158 6.09764 1.28785 7.4599 2.58585L7.48551 2.61023L7.51113 2.58585C8.87367 1.28759 10.9296 0.988158 12.5096 1.85693C13.6384 2.47741 14.3827 3.526 14.5524 4.73393C14.7232 5.95152 14.3017 7.145 13.3956 8.00811L8.26323 12.8977C8.05645 13.0949 7.78032 13.2036 7.48551 13.2036Z" fill="#B3C1DB"/>
</svg>
