<svg width="15" height="11" viewBox="0 0 15 11" fill="none" xmlns="http://www.w3.org/2000/svg">
<path fill-rule="evenodd" clip-rule="evenodd" d="M14.2773 7.56155C14.2773 9.41752 12.7079 10.9278 10.7799 10.9278ZM10.7799 10.9278H7.78356ZM7.78356 10.9278V9.97597ZM7.78356 9.97597H10.7799ZM10.7799 9.97597C12.1625 9.97597 13.2881 8.89295 13.2881 7.56154ZM13.2881 7.56154C13.2881 6.23013 12.1625 5.14711 10.7799 5.14711ZM10.7799 5.14711H9.77502ZM9.77502 5.14711L9.7837 4.60951ZM9.7837 4.60951C9.7837 2.87251 8.31595 1.45686 6.50946 1.45686ZM6.50946 1.45686C4.70299 1.45686 3.23349 2.87251 3.23349 4.60951ZM3.23349 4.60951C3.23349 4.6816 3.23697 4.75716 3.24391 4.84922ZM3.24391 4.84922L3.27084 5.19488ZM3.27084 5.19488L2.9382 5.32516ZM2.9382 5.32516C1.98546 5.70035 1.37056 6.57753 1.37056 7.56154ZM1.37056 7.56154C1.37056 8.89294 2.49613 9.97596 3.87879 9.97596ZM3.87879 9.97596H5.04691ZM5.04691 9.97596V10.9278ZM5.04691 10.9278H3.87879ZM3.87879 10.9278C1.95072 10.9278 0.381348 9.41752 0.381348 7.56154ZM0.381348 7.56154C0.381348 6.30309 1.1022 5.16969 2.24514 4.5878ZM2.24514 4.5878C2.2573 2.33492 4.16453 0.505859 6.50947 0.505859ZM6.50947 0.505859C8.71546 0.505859 10.535 2.12648 10.7521 4.19524ZM10.7521 4.19524L10.7799 4.19525ZM8.3993 7.82938L9.09932 7.15629L6.47124 4.62722L3.82927 7.16932L4.52841 7.8424L5.97011 6.45542V10.8804H6.95846V6.44239L8.3993 7.82938Z" fill="#97A9CB"/>
</svg>
