<svg width="15" height="16" viewBox="0 0 15 16" fill="none" xmlns="http://www.w3.org/2000/svg">
<path fill-rule="evenodd" clip-rule="evenodd" d="M7.15603 15.2059C11.0924 15.2059 14.2834 12.0148 14.2834 8.07852C14.2834 4.14219 11.0924 0.951172 7.15603 0.951172C3.21971 0.951172 0.0286865 4.14219 0.0286865 8.07852C0.0286865 12.0148 3.21971 15.2059 7.15603 15.2059Z" fill="#EEF3FE"/>
<path d="M7.15596 10.9284C7.00807 10.9284 6.86956 10.8761 6.7657 10.781L4.19127 8.42649C3.73678 8.01077 3.52532 7.4361 3.61097 6.84969C3.69609 6.26799 4.06948 5.76303 4.63574 5.46429C5.42857 5.04592 6.45976 5.19024 7.14311 5.81531L7.15596 5.82705L7.16881 5.81531C7.8523 5.19011 8.88361 5.04592 9.67618 5.46429C10.2424 5.76309 10.6158 6.26805 10.7009 6.84975C10.7866 7.4361 10.5751 8.01084 10.1206 8.42649L7.54608 10.7812C7.44236 10.8761 7.30384 10.9284 7.15596 10.9284Z" fill="#B3C1DB"/>
</svg>
