<svg width="20" height="18" viewBox="0 0 20 18" fill="none" xmlns="http://www.w3.org/2000/svg">
<path fill-rule="evenodd" clip-rule="evenodd" d="M19.1766 1.13238C19.18 0.755574 18.9302 0.446774 18.6187 0.442706L1.21602 0.382059C0.904478 0.378026 0.649042 0.680215 0.645543 1.05713C0.642076 1.43393 0.8919 1.74281 1.20338 1.74684L18.606 1.80745C18.9176 1.81144 19.1731 1.50922 19.1766 1.13238ZM19.1767 8.97255C19.1802 8.59572 18.9304 8.28691 18.6188 8.28284L1.21614 8.22215C0.904593 8.21812 0.649157 8.52032 0.645658 8.89726C0.642191 9.27408 0.892015 9.5829 1.2035 9.58693L18.6061 9.64754C18.9177 9.65154 19.1732 9.34941 19.1767 8.97255ZM18.6188 16.1229C18.9304 16.1269 19.1802 16.4357 19.1767 16.8125C19.1732 17.1894 18.9177 17.4917 18.6061 17.4876L1.2035 17.427C0.892015 17.4229 0.642191 17.1141 0.645658 16.7373C0.649157 16.3604 0.904593 16.0582 1.21614 16.0622L18.6188 16.1229Z" fill="black"/>
</svg>
