<svg width="26" height="24" viewBox="0 0 26 24" fill="none" xmlns="http://www.w3.org/2000/svg">
<path fill-rule="evenodd" clip-rule="evenodd" d="M26 1.05279C26.0048 0.524115 25.6543 0.0908543 25.2172 0.0851466L0.800462 5.59906e-05C0.363347 -0.00560276 0.00495907 0.418383 5.00401e-05 0.947214C-0.00481514 1.47589 0.345699 1.90925 0.782724 1.91491L25.1994 1.99995C25.6366 2.00555 25.9951 1.58151 26 1.05279ZM26 12.0529C26.0048 11.5242 25.6543 11.0909 25.2172 11.0852L0.800462 11.0001C0.363347 10.9944 0.00495907 11.4184 5.00401e-05 11.9473C-0.00481514 12.476 0.345699 12.9092 0.782724 12.9149L25.1994 12.9999C25.6366 13.0056 25.9951 12.5816 26 12.0529ZM25.2172 22.0852C25.6543 22.0909 26.0048 22.5241 26 23.0528C25.9951 23.5816 25.6366 24.0056 25.1994 23.9999L0.782724 23.9149C0.345699 23.9092 -0.00481514 23.4759 5.00401e-05 22.9472C0.00495907 22.4184 0.363347 21.9944 0.800462 22.0001L25.2172 22.0852Z" fill="black"/>
</svg>
