<svg width="35" height="35" viewBox="0 0 35 35" fill="none" xmlns="http://www.w3.org/2000/svg">
<path fill-rule="evenodd" clip-rule="evenodd" d="M17.5 35C7.87501 35 0 27.125 0 17.5C0 7.87501 7.87501 0 17.5 0C27.125 0 35 7.87501 35 17.5C35 27.125 27.125 35 17.5 35ZM17.7188 28H17.7188C18.375 28 19.4688 28 20.3438 27.7813C22.3125 27.5625 24.2813 27.125 26.0313 26.25C26.4688 26.0313 26.9063 25.5938 26.9063 25.1563C27.3438 22.75 25.5938 19.9063 23.1875 19.0313C22.5313 18.8125 21.6563 18.8125 21 19.0313C18.8125 20.125 16.4063 20.125 14.2188 19.0313C13.5625 18.5938 12.6875 18.5938 12.0313 19.0313C9.62501 20.125 8.53126 21.875 8.09376 24.2813C7.87501 25.8125 8.09376 26.0313 9.40626 26.4688C12.0313 27.5625 14.6563 28 17.7188 28ZM22.75 12.9063C22.75 15.75 20.3438 17.9375 17.5 17.9375C14.6563 17.9375 12.25 15.75 12.25 12.9063C12.25 10.0625 14.6563 7.87501 17.5 7.87501C20.3438 7.87501 22.75 10.0625 22.75 12.9063Z" fill="#97A9CB"/>
</svg>
