<svg width="18" height="22" viewBox="0 0 18 22" fill="none" xmlns="http://www.w3.org/2000/svg">
<path fill-rule="evenodd" clip-rule="evenodd" d="M9.16878 0.669312C10.2182 0.669312 11.0689 1.49516 11.0689 2.50786C11.0689 2.60937 11.0596 2.71087 11.0435 2.80775C13.8081 3.69127 15.8215 6.40873 15.8215 9.62447V12.1804C15.8215 12.1804 15.8215 15.8299 16.7715 15.8299C17.2963 15.8299 17.7216 16.2359 17.7216 16.748C17.7216 17.2555 17.2986 17.6661 16.7715 17.6661H1.56602C1.0413 17.6661 0.615967 17.2578 0.615967 16.748C0.615967 16.2405 1.03898 15.8299 1.59145 15.8299C2.51608 15.7976 2.51608 12.1551 2.51608 12.1551V9.62678C2.51608 6.41335 4.67046 3.69589 7.2941 2.81237C7.27792 2.71317 7.26867 2.61167 7.26867 2.50786C7.26867 1.49285 8.12164 0.669312 9.16878 0.669312ZM9.16875 21.3386C10.7522 21.3386 12.0166 20.1068 12.0189 18.5819H6.31858C6.32089 20.1091 7.59688 21.3386 9.16875 21.3386Z" fill="#97A9CB"/>
</svg>
