<svg width="35" height="29" viewBox="0 0 35 29" fill="none" xmlns="http://www.w3.org/2000/svg">
<path d="M25.756 23.0682H2.26516C1.01493 23.0682 0 21.9522 0 20.5774V2.49075C0 1.11601 1.01493 0 2.26516 0H25.756C27.0063 0 28.0212 1.11601 28.0212 2.49075V20.5774C28.0212 21.956 27.0063 23.0682 25.756 23.0682Z" fill="#97A9CB"/>
<path d="M3.42065 10.7952H22.1108V12.1404H3.42065V10.7952Z" fill="white"/>
<path d="M3.42065 14.5618H12.4988V15.907H3.42065V14.5618Z" fill="white"/>
<path d="M3.42065 5.57718H10.3145V8.59683H3.42065V5.57718Z" fill="white"/>
<path fill-rule="evenodd" clip-rule="evenodd" d="M27.1403 27.9521C30.7514 27.9521 33.6787 25.0013 33.6787 21.3612C33.6787 17.7212 30.7514 14.7703 27.1403 14.7703C23.5292 14.7703 20.6018 17.7212 20.6018 21.3612C20.6018 25.0013 23.5292 27.9521 27.1403 27.9521Z" fill="#97A9CB" stroke="white" stroke-width="0.825"/>
<path d="M23.8711 21.3612H30.4096" stroke="white" stroke-width="0.825" stroke-linecap="round"/>
<path d="M27.1404 18.0658V24.6567" stroke="white" stroke-width="0.825" stroke-linecap="round"/>
</svg>
