<svg width="24" height="29" viewBox="0 0 24 29" fill="none" xmlns="http://www.w3.org/2000/svg">
<path fill-rule="evenodd" clip-rule="evenodd" d="M12 0C13.4724 0 14.6659 1.15871 14.6659 2.57958C14.6659 2.72199 14.653 2.8644 14.6303 3.00033C18.5092 4.23996 21.3341 8.05268 21.3341 12.5645V16.1507C21.3341 16.1507 21.3341 21.271 22.667 21.271C23.4032 21.271 24 21.8406 24 22.5592C24 23.2712 23.4065 23.8473 22.667 23.8473H1.33297C0.596757 23.8473 0 23.2744 0 22.5592C0 21.8471 0.593513 21.271 1.36865 21.271C2.66595 21.2257 2.66595 16.1151 2.66595 16.1151V12.5677C2.66595 8.05915 5.68865 4.24643 9.36973 3.00681C9.34703 2.86763 9.33405 2.72522 9.33405 2.57958C9.33405 1.15547 10.5308 0 12 0ZM12 29C14.2216 29 15.9957 27.2717 15.9989 25.1323H8.00108C8.00432 27.2749 9.79459 29 12 29Z" fill="#97A9CB"/>
</svg>
