<svg width="26" height="26" viewBox="0 0 26 26" fill="none" xmlns="http://www.w3.org/2000/svg">
<path fill-rule="evenodd" clip-rule="evenodd" d="M13.0791 25.7641C6.21899 25.7641 0.606201 20.1513 0.606201 13.2912C0.606201 6.43115 6.21899 0.818359 13.0791 0.818359C19.9391 0.818359 25.5519 6.43115 25.5519 13.2912C25.5519 20.1513 19.9391 25.7641 13.0791 25.7641ZM13.2349 20.775C13.7026 20.775 14.4821 20.775 15.1058 20.619C16.509 20.4631 17.9122 20.1513 19.1595 19.5277C19.4713 19.3718 19.7831 19.0599 19.7831 18.7481C20.0949 17.0331 18.8476 15.0063 17.1326 14.3826C16.6649 14.2267 16.0412 14.2267 15.5735 14.3826C14.0144 15.1622 12.2994 15.1622 10.7403 14.3826C10.2725 14.0708 9.6489 14.0708 9.18117 14.3826C7.46615 15.1622 6.6866 16.4095 6.37477 18.1245C6.21886 19.2158 6.37477 19.3718 7.31024 19.6836C9.18117 20.4631 11.0521 20.775 13.2349 20.775ZM16.8209 10.0171C16.8209 12.0439 15.1058 13.603 13.079 13.603C11.0521 13.603 9.33713 12.0439 9.33713 10.0171C9.33713 7.99025 11.0521 6.43115 13.079 6.43115C15.1058 6.43115 16.8209 7.99025 16.8209 10.0171Z" fill="#97A9CB"/>
</svg>
