<svg width="26" height="21" viewBox="0 0 26 21" fill="none" xmlns="http://www.w3.org/2000/svg">
<path d="M19.1036 16.5362H2.36079C1.46971 16.5362 0.746338 15.7408 0.746338 14.761V1.87C0.746338 0.890176 1.46971 0.0947571 2.36079 0.0947571H19.1036C19.9946 0.0947571 20.718 0.890176 20.718 1.87V14.761C20.718 15.7436 19.9946 16.5362 19.1036 16.5362V16.5362Z" fill="#97A9CB"/>
<path d="M3.18433 7.78888H16.5055V8.74766H3.18433V7.78888Z" fill="white"/>
<path d="M3.18433 10.4734H9.65466V11.4322H3.18433V10.4734Z" fill="white"/>
<path d="M3.18433 4.06982H8.09777V6.22204H3.18433V4.06982Z" fill="white"/>
<path fill-rule="evenodd" clip-rule="evenodd" d="M20.0901 20.0172C22.6639 20.0172 24.7503 17.9141 24.7503 15.3197C24.7503 12.7253 22.6639 10.6221 20.0901 10.6221C17.5164 10.6221 15.4299 12.7253 15.4299 15.3197C15.4299 17.9141 17.5164 20.0172 20.0901 20.0172Z" fill="#97A9CB" stroke="white" stroke-width="0.588006"/>
<path d="M17.76 15.3197H22.4202" stroke="white" stroke-width="0.588006" stroke-linecap="round"/>
<path d="M20.0902 12.9709V17.6685" stroke="white" stroke-width="0.588006" stroke-linecap="round"/>
</svg>
