<svg width="104" height="23" viewBox="0 0 104 23" fill="none" xmlns="http://www.w3.org/2000/svg">
<mask id="mask0" mask-type="alpha" maskUnits="userSpaceOnUse" x="0" y="5" width="11" height="14">
<path fill-rule="evenodd" clip-rule="evenodd" d="M0.0483398 5.68436H10.6047V18.0184H0.0483398V5.68436Z" fill="white"/>
</mask>
<g mask="url(#mask0)">
<path fill-rule="evenodd" clip-rule="evenodd" d="M0.566311 14.869L0.570407 14.8647C1.05796 14.3638 1.83842 14.3646 2.36537 14.8237C3.06978 15.4371 4.03415 15.6464 5.16077 15.6464C6.55731 15.6464 7.33836 15.2194 7.33836 14.5792C7.33836 14.0336 6.69948 13.7013 4.97141 13.3456C1.27911 12.6102 0.0483398 11.4718 0.0483398 9.50327C0.0483398 7.58199 1.8708 5.68436 5.37393 5.68436C7.43587 5.68436 8.778 6.14733 9.78098 7.11413C10.3216 7.63534 10.2814 8.51654 9.71155 9.00512L9.63374 9.07176C9.11518 9.51617 8.33296 9.48314 7.87076 8.9803C7.29994 8.35922 6.51167 8.0563 5.42113 8.0563C4.09577 8.0563 3.29093 8.5783 3.29093 9.19488C3.29093 9.83531 3.88262 10.2385 5.87104 10.6419C9.32658 11.3296 10.6047 12.3732 10.6047 14.3419C10.6047 16.4766 8.7349 18.0184 5.20816 18.0184C3.37167 18.0184 1.80371 17.6416 0.676497 16.7661C0.079543 16.3025 0.0389789 15.4106 0.566311 14.869" fill="#B3C1DB"/>
</g>
<path fill-rule="evenodd" clip-rule="evenodd" d="M17.35 5.92106V3.74416C17.35 3.01403 16.6555 2.48499 15.9534 2.68023L14.9146 2.96888C14.4373 3.10138 14.1072 3.5368 14.1072 4.033V5.92106V8.3403V14.4362C14.1072 17.0452 15.7167 18.0178 18.06 18.0178C18.9433 18.0178 19.8152 17.8414 20.5181 17.5216C20.9916 17.3061 21.2416 16.7798 21.1246 16.2721C20.9841 15.6617 20.3673 15.2937 19.7635 15.4557C19.5295 15.5185 19.2725 15.5509 18.9831 15.5509C17.9652 15.5509 17.35 15.0528 17.35 13.9144V8.3403" fill="#B3C1DB"/>
<path fill-rule="evenodd" clip-rule="evenodd" d="M36.9911 14.8682L36.9952 14.8641C37.4827 14.3633 38.2632 14.364 38.7901 14.8231C39.4945 15.4366 40.4589 15.6459 41.5855 15.6459C42.9821 15.6459 43.7631 15.2188 43.7631 14.5786C43.7631 14.033 43.1242 13.7007 41.3962 13.3451C37.7039 12.6097 36.4729 11.4713 36.4729 9.50269C36.4729 7.58141 38.2956 5.68378 41.7987 5.68378C43.8608 5.68378 45.2029 6.14675 46.2057 7.11355C46.7463 7.63476 46.7062 8.51577 46.1361 9.00454L46.0585 9.07118C45.5399 9.51559 44.7577 9.48256 44.2955 8.97972C43.7247 8.35864 42.9364 8.05572 41.8459 8.05572C40.5205 8.05572 39.7157 8.57772 39.7157 9.1943C39.7157 9.83473 40.3074 10.2379 42.2958 10.6413C45.7513 11.329 47.0295 12.3726 47.0295 14.3414C47.0295 16.4761 45.1597 18.0178 41.6329 18.0178C39.7964 18.0178 38.2287 17.641 37.1013 16.7655C36.5045 16.3019 36.4637 15.41 36.9911 14.8682" fill="#B3C1DB"/>
<mask id="mask1" mask-type="alpha" maskUnits="userSpaceOnUse" x="91" y="5" width="13" height="18">
<path fill-rule="evenodd" clip-rule="evenodd" d="M91.1833 5.92105H103.126V22.8801H91.1833V5.92105Z" fill="white"/>
</mask>
<g mask="url(#mask1)">
<path fill-rule="evenodd" clip-rule="evenodd" d="M99.0277 18.5158C97.8679 21.7418 96.4952 22.8801 93.9389 22.8801C93.1539 22.8801 92.4982 22.7768 91.935 22.5542C91.3396 22.3189 91.0393 21.6509 91.2511 21.0456C91.4652 20.4337 92.1162 20.1168 92.741 20.2848C93.0328 20.363 93.3571 20.3898 93.7257 20.3898C94.6253 20.3898 95.2406 20.105 95.6667 18.9666L95.752 18.7624C95.9698 18.2408 95.9688 17.653 95.749 17.1321L94.7909 14.8632L92.0199 8.02056C91.6136 7.01742 92.3504 5.92105 93.4306 5.92105C94.2261 5.92105 94.9292 6.43875 95.1671 7.19936L96.9921 13.0369C97.1715 13.7023 98.1117 13.7078 98.2991 13.0447L98.3412 12.8944L100.195 6.95918C100.388 6.34162 100.959 5.92105 101.604 5.92105C102.669 5.92105 103.404 6.98889 103.025 7.98578L99.0277 18.5158Z" fill="#B3C1DB"/>
</g>
<path fill-rule="evenodd" clip-rule="evenodd" d="M12.8295 5.92096V5.92096C12.3455 5.92096 11.9531 6.31417 11.9531 6.79923V7.46213C11.9531 7.94719 12.3455 8.3402 12.8295 8.3402C13.3136 8.3402 13.706 7.94719 13.706 7.46213V6.79923C13.706 6.31417 13.3136 5.92096 12.8295 5.92096" fill="#B3C1DB"/>
<path fill-rule="evenodd" clip-rule="evenodd" d="M17.8215 7.13069V7.13069C17.8215 7.79868 18.3619 8.34041 19.0285 8.34041H19.9771C20.6437 8.34041 21.1843 7.79868 21.1843 7.13069C21.1843 6.46271 20.6437 5.92117 19.9771 5.92117H19.0285C18.3619 5.92117 17.8215 6.46271 17.8215 7.13069" fill="#B3C1DB"/>
<path fill-rule="evenodd" clip-rule="evenodd" d="M34.3032 15.773C33.7894 15.6603 33.3964 15.2012 33.3964 14.6423V10.0481C33.3964 7.10684 31.3136 5.68372 28.0236 5.68372C26.0843 5.68372 24.647 6.26141 23.7615 7.25146C23.4254 7.62688 23.3494 8.16901 23.5744 8.62006C24.038 9.54934 25.3226 9.72913 25.9732 8.92025C26.4744 8.29682 27.2326 8.05566 28.1656 8.05566C29.4437 8.05566 30.1774 8.86201 30.1774 10.1192C30.1774 10.3156 30.7457 16.1895 30.7457 16.1895C30.821 16.954 31.3331 17.6136 32.063 17.8485C32.4236 17.9646 32.8386 18.0177 33.3018 18.0177C33.5544 18.0177 33.794 17.9961 34.0189 17.9548C34.5008 17.8661 34.8664 17.4694 34.925 16.9822L34.9583 16.7045C35.0102 16.2716 34.7284 15.8664 34.3032 15.773" fill="#B3C1DB"/>
<path fill-rule="evenodd" clip-rule="evenodd" d="M30.2224 16.1782C30.1629 15.5728 29.5262 15.2263 28.9737 15.4784C28.4879 15.7 27.9217 15.8118 27.4082 15.8118C26.5562 15.8118 26.0591 15.4086 26.0591 14.6498C26.0591 13.8669 26.6036 13.4873 27.645 13.2503L29.1324 12.9159C29.562 12.8194 29.8524 12.417 29.8091 11.9778L29.7851 11.7343C29.7348 11.2229 29.2572 10.8652 28.7535 10.9622L27.3373 11.2342C24.1657 11.8272 22.7219 13.1317 22.7219 14.9818C22.7219 16.974 24.1419 18.0178 26.3904 18.0178C27.887 18.0178 29.1016 17.6682 29.9137 16.9994C30.1391 16.814 30.2567 16.5277 30.228 16.2369L30.2224 16.1782Z" fill="#B3C1DB"/>
<path fill-rule="evenodd" clip-rule="evenodd" d="M74.8202 15.773C74.3063 15.6603 73.9134 15.2012 73.9134 14.6423V10.0481C73.9134 7.10684 71.8306 5.68372 68.5406 5.68372C66.6013 5.68372 65.1638 6.26141 64.2783 7.25146C63.9424 7.62688 63.8662 8.16901 64.0912 8.62006C64.5548 9.54934 65.8394 9.72913 66.49 8.92025C66.9914 8.29682 67.7494 8.05566 68.6824 8.05566C69.9605 8.05566 70.6944 8.86201 70.6944 10.1192C70.6944 10.3156 71.2625 16.1895 71.2625 16.1895C71.3378 16.954 71.8501 17.6136 72.58 17.8485C72.9406 17.9646 73.3556 18.0177 73.8186 18.0177C74.0712 18.0177 74.311 17.9961 74.5359 17.9548C75.0178 17.8661 75.3834 17.4694 75.4419 16.9822L75.4751 16.7045C75.5272 16.2716 75.2454 15.8664 74.8202 15.773" fill="#B3C1DB"/>
<path fill-rule="evenodd" clip-rule="evenodd" d="M70.7394 16.1782C70.6797 15.5728 70.0432 15.2263 69.4907 15.4784C69.0047 15.7 68.4386 15.8118 67.9251 15.8118C67.073 15.8118 66.5759 15.4086 66.5759 14.6498C66.5759 13.8669 67.1204 13.4873 68.1618 13.2503L69.6494 12.9159C70.0789 12.8194 70.3695 12.417 70.3262 11.9778L70.3022 11.7343C70.2519 11.2229 69.7743 10.8652 69.2705 10.9622L67.8541 11.2342C64.6825 11.8272 63.2388 13.1317 63.2388 14.9818C63.2388 16.974 64.6587 18.0178 66.9075 18.0178C68.4041 18.0178 69.6186 17.6682 70.4307 16.9994C70.6561 16.814 70.7737 16.5277 70.7451 16.2369L70.7394 16.1782Z" fill="#B3C1DB"/>
<mask id="mask2" mask-type="alpha" maskUnits="userSpaceOnUse" x="49" y="0" width="4" height="18">
<path fill-rule="evenodd" clip-rule="evenodd" d="M49.6089 0.726532H52.8612V17.7805H49.6089V0.726532Z" fill="white"/>
</mask>
<g mask="url(#mask2)">
<path fill-rule="evenodd" clip-rule="evenodd" d="M52.8612 7.91891C52.8581 7.92517 52.8546 7.93083 52.8515 7.93728V2.35128C52.8515 1.45406 52.1258 0.726471 51.2303 0.726471C50.3347 0.726666 49.6089 1.45406 49.6089 2.35128V16.1557C49.6089 17.0532 50.3347 17.7805 51.2303 17.7805C52.1258 17.7805 52.8515 17.0532 52.8515 16.1557V11.5187C52.8515 11.4253 52.8571 11.3382 52.8612 11.2492V7.91891Z" fill="#B3C1DB"/>
</g>
<path fill-rule="evenodd" clip-rule="evenodd" d="M56.6621 5.68387C55.8528 5.68387 55.115 5.84979 54.483 6.19375C54.1245 6.38879 53.9006 6.7646 53.9006 7.17344C53.9006 7.85315 54.5023 8.36147 55.1747 8.27176C55.3065 8.25398 55.4397 8.24558 55.5733 8.24558C56.8043 8.24558 57.6799 8.90965 57.6799 10.9496V16.669C57.6799 17.2829 58.1766 17.7806 58.789 17.7806H59.8134C60.4262 17.7806 60.9227 17.2829 60.9227 16.669V10.0007C60.9227 7.13064 59.1236 5.68387 56.6621 5.68387" fill="#B3C1DB"/>
<mask id="mask3" mask-type="alpha" maskUnits="userSpaceOnUse" x="77" y="0" width="4" height="18">
<path fill-rule="evenodd" clip-rule="evenodd" d="M77.6899 0.726532H80.9407V17.9733H77.6899V0.726532Z" fill="white"/>
</mask>
<g mask="url(#mask3)">
<path fill-rule="evenodd" clip-rule="evenodd" d="M80.9407 14.296C80.9358 14.2056 80.9325 14.1116 80.9325 14.0092V2.37906C80.9325 1.4664 80.1942 0.726501 79.2833 0.726501C78.4031 0.726501 77.6899 1.44139 77.6899 2.32337V14.4837C77.6899 16.6477 78.4745 17.7335 80.2174 17.9674C80.5989 18.0186 80.9407 17.7274 80.9407 17.3416V14.296Z" fill="#B3C1DB"/>
</g>
<path fill-rule="evenodd" clip-rule="evenodd" d="M81.9802 17.0915C81.9802 17.5435 82.4348 17.8536 82.8545 17.6879C83.0681 17.6037 83.2188 17.4094 83.2475 17.1814C83.2475 17.1814 83.5505 15.4919 82.657 15.4919C81.6694 15.4919 81.9802 17.0915 81.9802 17.0915" fill="#B3C1DB"/>
<mask id="mask4" mask-type="alpha" maskUnits="userSpaceOnUse" x="84" y="0" width="4" height="18">
<path fill-rule="evenodd" clip-rule="evenodd" d="M84.376 0.726532H87.627V17.9733H84.376V0.726532Z" fill="white"/>
</mask>
<g mask="url(#mask4)">
<path fill-rule="evenodd" clip-rule="evenodd" d="M87.627 14.296C87.6221 14.2056 87.6186 14.1116 87.6186 14.0092V2.37906C87.6186 1.4664 86.8802 0.726501 85.9695 0.726501C85.0894 0.726501 84.376 1.44139 84.376 2.32337V14.4837C84.376 16.6477 85.1607 17.7335 86.9036 17.9674C87.2851 18.0186 87.627 17.7274 87.627 17.3416V14.296Z" fill="#B3C1DB"/>
</g>
<path fill-rule="evenodd" clip-rule="evenodd" d="M88.6663 17.0915C88.6663 17.5435 89.1207 17.8536 89.5404 17.6879C89.7539 17.6037 89.9046 17.4094 89.9333 17.1814C89.9333 17.1814 90.1742 15.4913 89.3428 15.4919C88.491 15.4922 88.6663 17.0915 88.6663 17.0915" fill="#B3C1DB"/>
</svg>
