<svg width="145" height="32" viewBox="0 0 145 32" fill="none" xmlns="http://www.w3.org/2000/svg">
<mask id="mask0" mask-type="alpha" maskUnits="userSpaceOnUse" x="0" y="7" width="15" height="18">
<path fill-rule="evenodd" clip-rule="evenodd" d="M0 7.2294H14.8111V24.5346H0V7.2294Z" fill="white"/>
</mask>
<g mask="url(#mask0)">
<path fill-rule="evenodd" clip-rule="evenodd" d="M0.726739 20.1159L0.732485 20.1099C1.41654 19.4071 2.51157 19.4082 3.2509 20.0523C4.23922 20.913 5.59228 21.2067 7.17299 21.2067C9.13239 21.2067 10.2282 20.6076 10.2282 19.7093C10.2282 18.9437 9.33186 18.4776 6.9073 17.9785C1.72683 16.9467 0 15.3495 0 12.5875C0 9.89187 2.55699 7.2294 7.47205 7.2294C10.3651 7.2294 12.2481 7.87898 13.6554 9.23544C14.4138 9.96673 14.3575 11.2031 13.5579 11.8886L13.4488 11.9821C12.7212 12.6056 11.6237 12.5593 10.9752 11.8538C10.1743 10.9824 9.06836 10.5573 7.53827 10.5573C5.67874 10.5573 4.5495 11.2897 4.5495 12.1548C4.5495 13.0534 5.37967 13.6191 8.16952 14.185C13.0178 15.1499 14.8111 16.6141 14.8111 19.3764C14.8111 22.3715 12.1876 24.5346 7.23948 24.5346C4.66278 24.5346 2.46287 24.006 0.881335 22.7776C0.0437794 22.1272 -0.0131338 20.8757 0.726739 20.1159Z" fill="#B3C1DB"/>
</g>
<path fill-rule="evenodd" clip-rule="evenodd" d="M24.2749 7.56237V4.50807C24.2749 3.48366 23.3005 2.74141 22.3155 3.01533L20.8579 3.42032C20.1883 3.60623 19.7251 4.21714 19.7251 4.91333V7.56237V10.9567V19.5095C19.7251 23.17 21.9833 24.5347 25.2711 24.5347C26.5104 24.5347 27.7337 24.2871 28.7199 23.8385C29.3842 23.5361 29.735 22.7977 29.5708 22.0853C29.3738 21.229 28.5083 20.7127 27.6612 20.94C27.3329 21.028 26.9722 21.0735 26.5662 21.0735C25.1382 21.0735 24.2749 20.3746 24.2749 18.7774V10.9567" fill="#B3C1DB"/>
<path fill-rule="evenodd" clip-rule="evenodd" d="M51.8322 20.1157L51.838 20.1099C52.522 19.4071 53.6171 19.4082 54.3564 20.0523C55.3447 20.913 56.6978 21.2067 58.2785 21.2067C60.2379 21.2067 61.3337 20.6076 61.3337 19.7093C61.3337 18.9437 60.4374 18.4776 58.0128 17.9786C52.8323 16.9468 51.1052 15.3496 51.1052 12.5875C51.1052 9.8919 53.6625 7.22943 58.5776 7.22943C61.4708 7.22943 63.3539 7.87901 64.7609 9.23547C65.5193 9.96676 65.463 11.2028 64.6632 11.8886L64.5543 11.9821C63.8267 12.6056 62.7292 12.5593 62.0807 11.8538C61.2798 10.9824 60.1739 10.5574 58.6438 10.5574C56.7842 10.5574 55.655 11.2898 55.655 12.1549C55.655 13.0534 56.4852 13.6191 59.275 14.185C64.1233 15.1499 65.9166 16.6142 65.9166 19.3764C65.9166 22.3715 63.2931 24.5347 58.345 24.5347C55.7683 24.5347 53.5686 24.006 51.9868 22.7776C51.1496 22.1272 51.0924 20.8758 51.8322 20.1157Z" fill="#B3C1DB"/>
<mask id="mask1" mask-type="alpha" maskUnits="userSpaceOnUse" x="127" y="7" width="18" height="25">
<path fill-rule="evenodd" clip-rule="evenodd" d="M127.867 7.56232H144.623V31.3567H127.867V7.56232Z" fill="white"/>
</mask>
<g mask="url(#mask1)">
<path fill-rule="evenodd" clip-rule="evenodd" d="M138.873 25.2333C137.245 29.7595 135.319 31.3567 131.733 31.3567C130.631 31.3567 129.712 31.2117 128.921 30.8994C128.086 30.5692 127.665 29.632 127.962 28.7828C128.262 27.9243 129.176 27.4796 130.052 27.7154C130.462 27.8251 130.917 27.8626 131.434 27.8626C132.696 27.8626 133.559 27.4631 134.157 25.8659L134.277 25.5794C134.582 24.8475 134.581 24.0227 134.273 23.292L132.928 20.1086L129.04 10.508C128.47 9.10057 129.504 7.56232 131.02 7.56232C132.136 7.56232 133.122 8.28867 133.456 9.35585L136.017 17.5462C136.268 18.4798 137.587 18.4875 137.85 17.5571L137.91 17.3463L140.51 9.01886C140.781 8.15239 141.582 7.56232 142.488 7.56232C143.981 7.56232 145.012 9.06054 144.481 10.4592L138.873 25.2333Z" fill="#B3C1DB"/>
</g>
<path fill-rule="evenodd" clip-rule="evenodd" d="M17.9328 7.56223C17.2537 7.56223 16.7031 8.11391 16.7031 8.79447V9.72456C16.7031 10.4051 17.2537 10.9565 17.9328 10.9565C18.6119 10.9565 19.1624 10.4051 19.1624 9.72456V8.79447C19.1624 8.11391 18.6119 7.56223 17.9328 7.56223Z" fill="#B3C1DB"/>
<path fill-rule="evenodd" clip-rule="evenodd" d="M24.9365 9.25952C24.9365 10.1967 25.6947 10.9568 26.63 10.9568H27.9609C28.8961 10.9568 29.6546 10.1967 29.6546 9.25952C29.6546 8.3223 28.8961 7.5625 27.9609 7.5625H26.63C25.6947 7.5625 24.9365 8.3223 24.9365 9.25952Z" fill="#B3C1DB"/>
<path fill-rule="evenodd" clip-rule="evenodd" d="M48.0613 21.3852C47.3403 21.227 46.7889 20.5829 46.7889 19.7987V13.3528C46.7889 9.22612 43.8667 7.2294 39.2507 7.2294C36.5298 7.2294 34.5132 8.03993 33.2707 9.42902C32.7992 9.95576 32.6925 10.7164 33.0083 11.3492C33.6587 12.6531 35.461 12.9053 36.3738 11.7704C37.077 10.8957 38.1409 10.5573 39.4499 10.5573C41.2432 10.5573 42.2725 11.6887 42.2725 13.4526C42.2725 13.7282 43.0699 21.9695 43.0699 21.9695C43.1755 23.0422 43.894 23.9676 44.9182 24.2972C45.4241 24.46 46.0064 24.5346 46.6562 24.5346C47.0106 24.5346 47.3468 24.5042 47.6623 24.4463C48.3385 24.3218 48.8515 23.7652 48.9336 23.0816L48.9804 22.692C49.0531 22.0847 48.6578 21.5162 48.0613 21.3852Z" fill="#B3C1DB"/>
<path fill-rule="evenodd" clip-rule="evenodd" d="M42.3355 21.9537C42.252 21.1042 41.3587 20.618 40.5835 20.9718C39.9019 21.2827 39.1076 21.4395 38.3871 21.4395C37.1917 21.4395 36.4942 20.8739 36.4942 19.8092C36.4942 18.7107 37.2582 18.1782 38.7193 17.8456L40.8062 17.3765C41.409 17.241 41.8164 16.6764 41.7557 16.0603L41.722 15.7187C41.6514 15.0011 40.9813 14.4993 40.2746 14.6353L38.2875 15.017C33.8376 15.8489 31.812 17.6792 31.812 20.275C31.812 23.0702 33.8042 24.5347 36.9591 24.5347C39.0589 24.5347 40.763 24.0442 41.9024 23.1058C42.2187 22.8456 42.3836 22.4439 42.3434 22.0359L42.3355 21.9537Z" fill="#B3C1DB"/>
<path fill-rule="evenodd" clip-rule="evenodd" d="M104.909 21.3852C104.188 21.227 103.636 20.5829 103.636 19.7987V13.3528C103.636 9.22612 100.714 7.2294 96.098 7.2294C93.3771 7.2294 91.3603 8.03993 90.1178 9.42902C89.6466 9.95576 89.5396 10.7164 89.8554 11.3492C90.5058 12.6531 92.3081 12.9053 93.2209 11.7704C93.9244 10.8957 94.9879 10.5573 96.297 10.5573C98.0903 10.5573 99.1199 11.6887 99.1199 13.4526C99.1199 13.7282 99.917 21.9695 99.917 21.9695C100.023 23.0422 100.741 23.9676 101.766 24.2972C102.271 24.46 102.854 24.5346 103.503 24.5346C103.858 24.5346 104.194 24.5042 104.51 24.4463C105.186 24.3218 105.699 23.7652 105.781 23.0816L105.827 22.692C105.901 22.0847 105.505 21.5162 104.909 21.3852Z" fill="#B3C1DB"/>
<path fill-rule="evenodd" clip-rule="evenodd" d="M99.1829 21.9537C99.0992 21.1042 98.2061 20.618 97.4309 20.9718C96.7491 21.2827 95.9547 21.4395 95.2343 21.4395C94.0389 21.4395 93.3414 20.8739 93.3414 19.8092C93.3414 18.7107 94.1053 18.1782 95.5665 17.8456L97.6537 17.3765C98.2562 17.241 98.6639 16.6764 98.6031 16.0603L98.5695 15.7187C98.4989 15.0011 97.8288 14.4993 97.122 14.6353L95.1347 15.017C90.6848 15.8489 88.6592 17.6792 88.6592 20.275C88.6592 23.0702 90.6514 24.5347 93.8065 24.5347C95.9063 24.5347 97.6104 24.0442 98.7498 23.1058C99.0661 22.8456 99.2311 22.4439 99.1909 22.0359L99.1829 21.9537Z" fill="#B3C1DB"/>
<mask id="mask2" mask-type="alpha" maskUnits="userSpaceOnUse" x="69" y="0" width="6" height="25">
<path fill-rule="evenodd" clip-rule="evenodd" d="M69.5356 0.2742H74.0988V24.2018H69.5356V0.2742Z" fill="white"/>
</mask>
<g mask="url(#mask2)">
<path fill-rule="evenodd" clip-rule="evenodd" d="M74.0988 10.3654C74.0945 10.3742 74.0895 10.3821 74.0851 10.3912V2.55377C74.0851 1.29492 73.067 0.274078 71.8105 0.274078C70.5541 0.274353 69.5356 1.29492 69.5356 2.55377V21.9221C69.5356 23.1812 70.5541 24.2018 71.8105 24.2018C73.067 24.2018 74.0851 23.1812 74.0851 21.9221V15.4162C74.0851 15.2851 74.0931 15.1628 74.0988 15.038V10.3654Z" fill="#B3C1DB"/>
</g>
<path fill-rule="evenodd" clip-rule="evenodd" d="M79.4319 7.22955C78.2963 7.22955 77.2612 7.46235 76.3744 7.94494C75.8715 8.21859 75.5574 8.74587 75.5574 9.3195C75.5574 10.2732 76.4015 10.9863 77.3449 10.8605C77.5299 10.8355 77.7168 10.8237 77.9042 10.8237C79.6313 10.8237 80.8599 11.7555 80.8599 14.6176V22.6423C80.8599 23.5035 81.5568 24.2019 82.416 24.2019H83.8533C84.713 24.2019 85.4097 23.5035 85.4097 22.6423V13.2863C85.4097 9.25945 82.8855 7.22955 79.4319 7.22955Z" fill="#B3C1DB"/>
<mask id="mask3" mask-type="alpha" maskUnits="userSpaceOnUse" x="108" y="0" width="6" height="25">
<path fill-rule="evenodd" clip-rule="evenodd" d="M108.935 0.2742H113.496V24.4722H108.935V0.2742Z" fill="white"/>
</mask>
<g mask="url(#mask3)">
<path fill-rule="evenodd" clip-rule="evenodd" d="M113.496 19.3129C113.489 19.1859 113.484 19.054 113.484 18.9104V2.59279C113.484 1.31229 112.448 0.27417 111.17 0.27417C109.935 0.27417 108.935 1.27719 108.935 2.51465V19.5761C108.935 22.6123 110.036 24.1358 112.481 24.464C113.016 24.5358 113.496 24.1273 113.496 23.586V19.3129Z" fill="#B3C1DB"/>
</g>
<path fill-rule="evenodd" clip-rule="evenodd" d="M114.954 23.2349C114.954 23.8692 115.592 24.3043 116.181 24.0718C116.481 23.9536 116.692 23.6811 116.732 23.3611C116.732 23.3611 117.157 20.9906 115.904 20.9906C114.518 20.9906 114.954 23.2349 114.954 23.2349Z" fill="#B3C1DB"/>
<mask id="mask4" mask-type="alpha" maskUnits="userSpaceOnUse" x="118" y="0" width="5" height="25">
<path fill-rule="evenodd" clip-rule="evenodd" d="M118.315 0.2742H122.877V24.4722H118.315V0.2742Z" fill="white"/>
</mask>
<g mask="url(#mask4)">
<path fill-rule="evenodd" clip-rule="evenodd" d="M122.877 19.3129C122.87 19.1859 122.865 19.054 122.865 18.9104V2.59279C122.865 1.31229 121.829 0.27417 120.551 0.27417C119.316 0.27417 118.315 1.27719 118.315 2.51465V19.5761C118.315 22.6123 119.416 24.1358 121.862 24.464C122.397 24.5358 122.877 24.1273 122.877 23.586V19.3129Z" fill="#B3C1DB"/>
</g>
<path fill-rule="evenodd" clip-rule="evenodd" d="M124.335 23.2349C124.335 23.8692 124.973 24.3043 125.561 24.0718C125.861 23.9536 126.073 23.6811 126.113 23.3611C126.113 23.3611 126.451 20.9898 125.284 20.9906C124.089 20.9912 124.335 23.2349 124.335 23.2349Z" fill="#B3C1DB"/>
</svg>
