<svg width="93" height="81" viewBox="0 0 93 81" fill="none" xmlns="http://www.w3.org/2000/svg">
<path fill-rule="evenodd" clip-rule="evenodd" d="M4.78258 0.516357H74.7432C77.2609 0.516357 79.2965 2.54401 79.2965 5.0519V61.346C79.2965 63.8539 77.2609 65.8816 74.7432 65.8816H4.78258C2.26486 65.8816 0.229248 63.8539 0.229248 61.346V5.0519C0.229248 2.54401 2.26486 0.516357 4.78258 0.516357ZM71.2611 35.3067C72.2254 36.2138 73.8324 35.5735 73.8324 34.2395V8.04008C73.8324 6.86618 72.9218 5.95907 71.7432 5.95907H7.7823C6.60379 5.95907 5.69313 6.86618 5.69313 8.04008V43.2039C5.69313 44.5379 7.30018 45.2316 8.26442 44.2711L22.4065 30.1842C22.4065 30.1842 23.0494 29.704 23.585 29.704C24.1207 29.704 24.8171 30.2376 24.8171 30.2376L33.281 38.7217C33.8702 39.3087 34.8345 39.3087 35.4237 38.7217L53.637 20.4728C53.637 20.4728 54.2799 19.9392 55.0298 19.9392C55.7798 19.9392 56.4226 20.5262 56.4226 20.5262L71.2611 35.3067Z" fill="#97A9CB"/>
<path d="M12.0681 17.0578C12.0681 19.6806 14.2026 21.8068 16.8357 21.8068C19.4688 21.8068 21.6033 19.6806 21.6033 17.0578C21.6033 14.435 19.4688 12.3088 16.8357 12.3088C14.2026 12.3088 12.0681 14.435 12.0681 17.0578Z" fill="#97A9CB"/>
<path fill-rule="evenodd" clip-rule="evenodd" d="M75.0647 79.0613C83.9403 79.0613 91.1353 71.8943 91.1353 63.0535C91.1353 54.2126 83.9403 47.0457 75.0647 47.0457C66.1892 47.0457 58.9941 54.2126 58.9941 63.0535C58.9941 71.8943 66.1892 79.0613 75.0647 79.0613Z" fill="#97A9CB" stroke="#EFF4FF" stroke-width="2.13438"/>
<path d="M68.6365 62.5199H81.4929" stroke="white" stroke-width="2.13438" stroke-linecap="round"/>
<path d="M75.0647 56.1167V68.9229" stroke="white" stroke-width="2.13438" stroke-linecap="round"/>
</svg>
