<svg width="28" height="28" viewBox="0 0 28 28" fill="none" xmlns="http://www.w3.org/2000/svg">
<path fill-rule="evenodd" clip-rule="evenodd" d="M13.798 27.4197C21.2636 27.4197 27.3157 21.3676 27.3157 13.902C27.3157 6.43636 21.2636 0.384277 13.798 0.384277C6.33236 0.384277 0.280273 6.43636 0.280273 13.902C0.280273 21.3676 6.33236 27.4197 13.798 27.4197Z" fill="#EFF4FF"/>
<path fill-rule="evenodd" clip-rule="evenodd" d="M13.7979 5.3645C13.538 5.3645 13.2411 5.3645 12.9813 5.40162C9.82609 5.77282 7.22772 8.29695 6.78229 11.4521C6.44821 13.9391 7.45044 16.3148 9.34354 17.8367C9.52914 18.9503 10.4942 19.804 11.645 19.804H15.8395C16.9902 19.804 17.9924 18.9503 18.1409 17.8367C19.8113 16.5004 20.7764 14.533 20.7764 12.3801C20.8506 8.51967 17.6954 5.3645 13.7979 5.3645ZM16.7675 17.0943V17.5026C16.7675 17.9852 16.3963 18.3564 15.9137 18.3564H14.5403V14.0505L14.9486 14.533C15.0971 14.6815 15.2827 14.7929 15.5054 14.7929H15.5425C15.7653 14.7929 15.988 14.6444 16.0993 14.4588L17.3614 12.4543C17.5841 12.1203 17.4728 11.6377 17.1387 11.415C16.8046 11.1923 16.3221 11.3036 16.0993 11.6377L15.357 12.7884L14.3176 11.5635C14.0206 11.2294 13.4639 11.2294 13.204 11.5635L12.1647 12.7884L11.4223 11.6377C11.1996 11.3036 10.7541 11.1923 10.3829 11.415C10.0489 11.6377 9.93749 12.0831 10.1602 12.4543L11.4223 14.4588C11.5336 14.6444 11.7564 14.7929 11.9791 14.7929C12.2018 14.7929 12.4616 14.7186 12.6101 14.533L13.0184 14.0505V18.3564H11.645C11.1624 18.3564 10.7912 17.9852 10.7912 17.5026V17.0943C9.04662 15.9807 7.93304 13.9391 8.22999 11.6748C8.60119 9.1507 10.6428 7.18336 13.1669 6.88641C13.3525 6.84929 13.5752 6.84929 13.7979 6.84929C16.8789 6.84929 19.3659 9.3363 19.3659 12.3801C19.3659 14.3846 18.3265 16.0921 16.7675 17.0943ZM11.942 20.9548H15.6539C16.0623 20.9548 16.3963 21.2889 16.3963 21.6972C16.3963 22.1055 16.0623 22.4396 15.6539 22.4396H11.942C11.5337 22.4396 11.1996 22.1055 11.1996 21.6972C11.1996 21.2889 11.5337 20.9548 11.942 20.9548Z" fill="#97A9CB"/>
</svg>
