<svg width="8" height="14" viewBox="0 0 8 14" fill="none" xmlns="http://www.w3.org/2000/svg">
<path d="M2.4345 6.90228L7.6463 1.69036C7.95255 1.38423 7.95255 0.887619 7.6463 0.58159L7.42442 0.35981C7.11828 0.0535658 6.6219 0.0535658 6.31564 0.35981L0.55015 6.12553C0.550043 6.12564 0.549809 6.12577 0.549683 6.126L0.327903 6.34778C0.0216584 6.65392 0.0216584 7.15042 0.327903 7.45643L0.549683 7.67844C0.550366 7.67925 0.551302 7.67983 0.551985 7.68051L6.31587 13.4445C6.62212 13.7509 7.11851 13.7509 7.42465 13.4445L7.64654 13.2227C7.95278 12.9165 7.95278 12.4202 7.64654 12.114L2.4345 6.90226V6.90228Z" fill="#97A9CB"/>
</svg>
