<svg width="11" height="10" viewBox="0 0 11 10" fill="none" xmlns="http://www.w3.org/2000/svg">
<path d="M5.3595 9.07659C5.15247 9.07659 4.95854 9.00026 4.81314 8.86162L1.20895 5.42791C0.57265 4.82166 0.276607 3.9836 0.396519 3.12841C0.515689 2.28011 1.03844 1.5437 1.83119 1.10803C2.94116 0.49791 4.38482 0.708376 5.34151 1.61994L5.3595 1.63706L5.37749 1.61994C6.33438 0.708193 7.77822 0.49791 8.88781 1.10803C9.68056 1.54379 10.2033 2.28019 10.3225 3.1285C10.4424 3.9836 10.1464 4.82176 9.51006 5.42791L5.90568 8.86179C5.76046 9.00025 5.56654 9.07659 5.3595 9.07659Z" fill="#B3C1DB"/>
</svg>
