<svg width="14" height="12" viewBox="0 0 14 12" fill="none" xmlns="http://www.w3.org/2000/svg">
<path d="M7 11.8333C6.70952 11.8333 6.43743 11.7262 6.23343 11.5317L1.17657 6.71403C0.283821 5.86343 -0.131542 4.68759 0.0367005 3.48772C0.203901 2.29751 0.937341 1.2643 2.04962 0.653037C3.60695 -0.202997 5.63247 0.0922967 6.97476 1.37127L7 1.39529L7.02524 1.37127C8.3678 0.0920399 10.3936 -0.202997 11.9504 0.653037C13.0626 1.26442 13.7961 2.29763 13.9633 3.48785C14.1315 4.68759 13.7162 5.86357 12.8234 6.71403L7.76631 11.5319C7.56257 11.7262 7.29048 11.8333 7 11.8333Z" fill="#B3C1DB"/>
</svg>
