<svg width="14" height="14" viewBox="0 0 14 14" fill="none" xmlns="http://www.w3.org/2000/svg">
<path d="M1.99649 1.44054C2.0951 1.29039 2.26266 1.19996 2.44229 1.19996H11.5577C11.7373 1.19996 11.9049 1.29039 12.0035 1.44054L13.3791 3.53528C13.4362 3.62224 13.4667 3.72401 13.4667 3.82804V12.6C13.4667 12.8945 13.2279 13.1333 12.9333 13.1333H1.06667C0.772115 13.1333 0.533333 12.8945 0.533333 12.6V3.82804C0.533333 3.72401 0.56376 3.62224 0.620867 3.53528L1.99649 1.44054Z" stroke="#D5D5D5" stroke-width="1.06667"/>
<path d="M0.666748 4.66671H4.00008" stroke="#D5D5D5" stroke-width="1.06667" stroke-linecap="round"/>
<path d="M10 4.66671H12.6667" stroke="#D5D5D5" stroke-width="1.06667" stroke-linecap="round"/>
<path d="M7.00008 7.33337V8.08337" stroke="#D5D5D5" stroke-width="0.8" stroke-linecap="round"/>
<path d="M7 4.75046L7 4.75046L9.80957 7.56003L7 10.3696L4.19043 7.56003L7 4.75046Z" stroke="#D5D5D5" stroke-width="1.06667"/>
</svg>
