<svg width="11" height="11" viewBox="0 0 11 11" fill="none" xmlns="http://www.w3.org/2000/svg">
<path d="M2.60155 1.78515H9.09842C9.22645 1.78515 9.34587 1.8496 9.41615 1.95662L10.3966 3.44962C10.4373 3.5116 10.459 3.58413 10.459 3.65828V9.91033C10.459 10.1203 10.2888 10.2905 10.0789 10.2905H1.62109C1.41115 10.2905 1.24096 10.1203 1.24096 9.91033V3.65828C1.24096 3.58413 1.26265 3.5116 1.30335 3.44962L2.28381 1.95662C2.35409 1.8496 2.47352 1.78515 2.60155 1.78515Z" stroke="#D5D5D5" stroke-width="0.76025"/>
<path d="M1.33618 4.25601H3.71196" stroke="#D5D5D5" stroke-width="0.76025" stroke-linecap="round"/>
<path d="M7.98828 4.25601H9.88891" stroke="#D5D5D5" stroke-width="0.76025" stroke-linecap="round"/>
<path d="M5.85013 6.15662V6.69117" stroke="#D5D5D5" stroke-width="0.570188" stroke-linecap="round"/>
<path d="M5.8501 4.31578L7.85258 6.31825L5.8501 8.32073L3.84762 6.31825L5.8501 4.31578L5.8501 4.31578Z" stroke="#D5D5D5" stroke-width="0.76025"/>
</svg>
