<svg width="16" height="20" viewBox="0 0 16 20" fill="none" xmlns="http://www.w3.org/2000/svg">
<path fill-rule="evenodd" clip-rule="evenodd" d="M5.81169 2.24186L5.61699 1.95404L5.42652 1.65352L5.00326 0.980535C4.94851 0.898436 4.96916 0.787666 5.04981 0.73081C5.08329 0.700197 5.1272 0.683541 5.17256 0.684251C5.21815 0.693453 5.25795 0.721005 5.28261 0.760438L5.74397 1.48845L5.93867 1.78897L6.1376 2.09795C7.46172 1.57327 8.93607 1.57327 10.2602 2.09795L10.4549 1.78897L10.6496 1.48845L11.1152 0.764671C11.139 0.72363 11.1789 0.694455 11.2252 0.684251C11.2706 0.67577 11.3175 0.684848 11.3564 0.709646C11.4333 0.768874 11.4534 0.876424 11.403 0.959372L10.9797 1.63236L10.7766 1.95404L10.5819 2.25879C12.0293 2.88344 12.9881 4.28532 13.0453 5.86077H3.34828C3.4065 4.28566 4.36491 2.88428 5.81167 2.25879L5.81169 2.24186ZM13.7393 12.269C13.7299 12.8541 14.1954 13.3367 14.7805 13.3483C15.364 13.3344 15.827 12.8525 15.8175 12.269V7.64692C15.8203 7.60273 15.8203 7.55841 15.8175 7.51422C15.7809 6.94033 15.2859 6.50481 14.7121 6.54146C14.1382 6.5781 13.7027 7.07304 13.7393 7.64692V12.269ZM11.1577 15.6297H11.9492L11.9492 15.6297C12.5677 15.6158 13.0591 15.1055 13.0497 14.4869V6.56761H3.34849V14.4826C3.33667 15.1005 3.82689 15.6116 4.44474 15.6254H5.23624C5.20916 15.7219 5.19493 15.8215 5.19391 15.9217V18.2074C5.19391 18.7824 5.66009 19.2486 6.23514 19.2486C6.8102 19.2486 7.27637 18.7824 7.27637 18.2074V15.9217C7.27536 15.8215 7.26113 15.7219 7.23405 15.6255H9.16413C9.13705 15.7219 9.12282 15.8215 9.12181 15.9217V18.2074C9.11898 18.2515 9.11898 18.2959 9.12181 18.3401C9.15845 18.9139 9.65338 19.3495 10.2273 19.3128C10.8012 19.2762 11.2367 18.7812 11.2 18.2074V15.926C11.2011 15.8256 11.1869 15.7257 11.1577 15.6297ZM10.8396 3.88463C10.8279 4.18362 10.5761 4.41652 10.2771 4.40483L10.2726 4.40474C9.98051 4.39769 9.74941 4.15517 9.75646 3.86305C9.75647 3.85614 9.75661 3.84922 9.75688 3.8423C9.76856 3.54332 10.0204 3.31042 10.3194 3.3221C10.6184 3.33379 10.8513 3.58564 10.8396 3.88463ZM6.12056 4.40483C6.41954 4.41652 6.6714 4.18362 6.68308 3.88463C6.69477 3.58564 6.46187 3.33379 6.16288 3.3221C5.8639 3.31042 5.61204 3.54332 5.60036 3.8423C5.60009 3.84922 5.59995 3.85614 5.59994 3.86305C5.59289 4.15517 5.82399 4.39769 6.11611 4.40474L6.12056 4.40483ZM0.575943 12.2736C0.56671 12.858 1.03292 13.3392 1.61725 13.3484C2.2007 13.3345 2.66371 12.8526 2.65425 12.2691V7.64704C2.66607 7.06186 2.20238 6.57735 1.61725 6.56348L1.61683 6.56349C1.03021 6.57529 0.564224 7.06041 0.576025 7.64704L0.576025 7.64704V12.2691L0.575943 12.2736Z" fill="#333333"/>
</svg>
