<svg width="16" height="19" viewBox="0 0 16 19" fill="none" xmlns="http://www.w3.org/2000/svg">
<path fill-rule="evenodd" clip-rule="evenodd" d="M11.6446 0.801253L11.6174 0.681152L9.97624 1.30853L8.89126 2.29539L8.26959 3.58475L8.04078 5.09802L8.68933 5.01864L9.17462 4.91238L9.76372 4.61803L10.3524 4.12744L10.9497 3.40765L11.3666 2.62231L11.6039 1.84267L11.6829 1.13917L11.6776 1.03046L11.6719 0.921355L11.6446 0.801253ZM11.8032 4.78169L11.8031 4.78167L11.8035 4.78166L11.8032 4.78169ZM11.8032 4.78169L10.9444 4.87449L9.91686 5.15255L8.99269 5.43062L8.35758 5.52303L7.79575 5.4412L6.85245 5.19611L5.79759 4.95062L4.92228 4.86919L4.02539 4.9669L3.21033 5.26125L2.47629 5.75224L1.82489 6.43906L1.28586 7.29117L0.90072 8.25483L0.669883 9.33045L0.592529 10.5176L0.692682 11.8501L0.993545 13.2087L1.49431 14.5929L2.19537 16.0028L3.01043 17.2388L3.82875 18.1214L4.65154 18.6507L5.478 18.8274L6.11596 18.7346L6.91759 18.4565L7.74608 18.1866L8.46587 18.0966L9.23208 18.1841L10.1127 18.4455L10.9904 18.7073L11.6394 18.7948L12.3376 18.6609L13.0379 18.2603L13.7393 17.5922L14.4416 16.6574L15.2355 15.294L15.7835 13.9309L14.8675 13.4403L14.0601 12.5573L13.4959 11.4092L13.3078 10.1251L13.4849 8.94449L14.0166 7.86765L14.5182 7.26796L15.2599 6.58115L14.1257 5.49047L13.0326 4.95876L11.8032 4.78169Z" fill="#333333"/>
</svg>
